<svg xmlns="http://www.w3.org/2000/svg" enable-background="new 0 0 50 50" viewBox="0 0 50 50"><circle cx="27.2" cy="3.4" r=".3"/><path d="M21.1,3.4c0,0.4,0.6,0.4,0.6,0c0-0.2-0.1-0.3-0.3-0.3C21.2,3.1,21.1,3.3,21.1,3.4z"/><ellipse cx="10.9" cy="14.6" fill="#EDEEE9" rx="8.1" ry="7.1" transform="rotate(43.485 10.897 14.64)"/><path fill="#CBCDC5" d="M11.3,22.3c-2-0.1-4-1-5.5-2.3c-1.5-1.4-2.6-3.2-2.9-5.3C2.4,10,5.8,6.4,10.5,6.8c2.1,0.2,4,1.2,5.5,2.6
					c1.4,1.4,2.4,3.3,2.6,5.3C19,19.1,15.7,22.5,11.3,22.3z M18.4,14.7c-0.5-3.8-3.9-7.1-8-7.3c-4.1-0.2-7.3,3-6.8,7.2
					c0.2,1.9,1.1,3.7,2.5,5.1c1.4,1.4,3.2,2.3,5.2,2.5C15.7,22.5,19,19.1,18.4,14.7z"/><ellipse cx="39.1" cy="14.6" fill="#EDEEE9" rx="8.1" ry="7.1" transform="rotate(136.515 39.1 14.641)"/><path fill="#CBCDC5" d="M43.9,19.7c3.2-3.2,3.3-7.8,0.8-10.3c-1.9-2.1-5.2-2.5-7.9-1.3c-0.9,0.4-1.7,0.9-2.4,1.6
					c-1.4,1.3-2.5,3.1-2.8,5.1C30.6,21.5,38.7,24.8,43.9,19.7z M31.5,14.7c0.2-2,1.2-3.9,2.6-5.3c3.3-3.3,8.3-3.5,11.2-0.5
					c2.8,3,2.3,8-1.1,11.1C38.8,24.8,30.7,21.6,31.5,14.7z"/><path fill="#5B302A" d="M31.4 22.4c4.2-.2 8.7 1.3 11.6 4.3l0 0c.4.4.4 1.1 0 1.5-.4.4-1.1.4-1.5 0 0 0 0 0 0-.1-2.4-2.8-6.4-4.3-10-4.4l0 0c-.4 0-.6-.3-.6-.7C30.8 22.7 31.1 22.5 31.4 22.4zM7.5 28.1c-.4.4-1 .5-1.5.1-.4-.4-.5-1-.1-1.5 0 0 0 0 0 0l0 0c2.2-2.3 5.3-3.6 8.5-4.1.5-.1 1-.1 1.6-.2.5 0 1 0 1.6 0 .4 0 .6.3.6.7 0 .3-.3.6-.6.6C17.4 23.8 11.2 23.7 7.5 28.1zM24.5 49L24.5 49c-.9 0-1.6-.6-1.8-1.4L22 44.4h5l-.7 3.2C26.1 48.4 25.3 49 24.5 49z"/><path fill="#F2E822" d="M38.3,32.9c0,1.1-0.1,2.1-0.4,3.1c-0.3,1.2-0.8,2.4-1.4,3.5c-2.4,4-6.8,6.7-12,6.7
					c-5.1,0-9.6-2.6-12-6.7c-0.7-1.2-1.2-2.4-1.5-3.8c-0.2-0.9-0.3-1.8-0.3-2.8v0c0-1.3,0.2-2.6,0.6-3.9c1.7-5.4,6.9-9.4,13.2-9.4
					c6.6,0,12,4.4,13.4,10c0.2,0.9,0.4,1.9,0.4,2.9C38.3,32.7,38.3,32.8,38.3,32.9z"/><path fill="#D1C529" d="M34.9,24.1c-2.3,1.2-6.1,0.8-10.4,0.8c-4.3,0-8.1,0.4-10.4-0.8c2.5-2.8,6.3-4.5,10.4-4.5
					C28.6,19.6,32.3,21.4,34.9,24.1z"/><path d="M27.1 9.1c-.1 0-.2 0-.3 0-.1 0-.2-.1-.1-.2 0-.1.1-.2.2-.1 2.1.4 3.1-3.2 2.8-5.6-.3-2.3-2.9-2.4-3.3-.4-.1.7-.1 1.6.5 1.9 1 .6 1.4-1.1.4-1-.1 0-.2-.1-.2-.2 0-.1.1-.2.2-.2.8 0 1.3.9.7 1.5-.7.8-2.5.2-2-2.1.5-2.3 2.8-2 3.6-.9C30.7 3.4 29.9 9.1 27.1 9.1zM21.5 9.1c-1.2 0-1.9-1-2.4-2.1-.5-1.3-.7-2.6-.5-4 .3-2.2 2.4-2.4 3.3-1.8.5.3.7 1 .8 1.4.1.3.1.8 0 1.3-.4 1.9-2.9 1.2-2.2-.1.2-.3.5-.5.9-.5.1 0 .2.1.2.2 0 .3-.5 0-.7.5-.3.5.4 1 .9.7.3-.1.5-.5.6-.8.1-.4 0-.8 0-1.1-.4-2-3-1.9-3.3.4-.3 2.3.7 6 2.8 5.6.1 0 .2 0 .2.1 0 .1 0 .2-.1.2C21.7 9.1 21.6 9.1 21.5 9.1z"/><path fill="#D1C529" d="M35.8,18.3c0,6.7-5,5.6-11.3,5.6c-6.3,0-11.3,1.1-11.3-5.6c0-4,1.8-7.6,4.5-9.8C19.6,7,21.9,6,24.5,6
					C30.7,6,35.8,11.5,35.8,18.3z"/><path fill="#F2E822" d="M35.1,18.9c0,6.2-3.7,5.1-10.6,5.1c-6.3,0-11.3,1.1-11.3-5.6c0-4,1.8-7.6,4.5-9.8
					c1.8-1.2,3.8-1.9,6.1-1.9C30,6.6,35.1,12.1,35.1,18.9z"/><ellipse cx="29" cy="14.3" rx="1.8" ry="2"/><ellipse cx="19.9" cy="14.3" rx="1.8" ry="2"/><ellipse cx="28.5" cy="13.9" fill="#FFF" rx=".6" ry=".7"/><ellipse cx="20.5" cy="13.9" fill="#FFF" rx=".6" ry=".7"/><path d="M30,18.4c-3.8,5.2-7.4,5.1-11,0C22.7,19,26.3,19,30,18.4z"/><path fill="#5B302A" d="M36.5 39.4c-.7 1.1-1.5 2.2-2.5 3-3.2.5-6.4.7-9.6.7-3.2 0-6.3-.2-9.4-.7-1-.9-1.8-1.9-2.5-3.1C20.4 41 28.5 41 36.5 39.4zM38.3 32.9c0 1.1-.1 2.1-.4 3.1-4.5.9-9 1.4-13.4 1.3-4.5 0-9-.6-13.5-1.6-.2-.9-.3-1.8-.3-2.8 4.8 1.1 9.4 1.5 13.8 1.5 4.7 0 9.3-.7 13.8-1.8C38.3 32.7 38.3 32.8 38.3 32.9zM37.9 29.6c-4.5.8-9 1.2-13.4 1.1-4.4-.1-8.8-.7-13.2-1.7.3-.9.7-1.8 1.2-2.7 3.9.7 7.9 1 12 .9 3.9-.1 7.8-.6 11.7-1.5C36.9 26.9 37.5 28.2 37.9 29.6z"/></svg>